<?xml version="1.0" encoding="UTF-8"?><svg id="b" xmlns="http://www.w3.org/2000/svg" viewBox="0 0 249.55 46.73"><defs><style>.d{fill:#86eb46;}.e{fill:#323e48;}.f{fill:#1ed35f;}.g{fill:none;stroke:#323e48;stroke-miterlimit:10;stroke-width:1px;}</style></defs><g id="c"><g><path class="e" d="m190.31,28.56h1.96c0,3.13,2.24,4.79,6.44,4.79s6.06-1.55,6.06-4.61-1.76-4.37-6.61-5.03c-5.37-.69-7.4-2.41-7.4-6.23,0-4.24,2.82-6.54,7.92-6.54s7.68,2.2,7.68,6.44h-1.96c0-3.1-1.86-4.62-5.72-4.62s-5.99,1.55-5.99,4.48,1.69,4.06,6.27,4.65c5.68.76,7.78,2.58,7.78,6.68,0,4.37-2.75,6.61-8.09,6.61s-8.33-2.31-8.33-6.61Z"/><path class="e" d="m210.56,26.12v-6.13c0-5.99,2.96-9.06,8.61-9.06,5.24,0,8.13,2.62,8.37,7.61h-1.93c-.24-3.86-2.38-5.79-6.44-5.79-4.48,0-6.61,2.38-6.61,7.37v5.85c0,4.99,2.14,7.37,6.65,7.37,3.96,0,6.17-1.86,6.41-5.75h1.93c-.24,4.96-3.1,7.58-8.33,7.58-5.68,0-8.64-3.06-8.64-9.06Z"/><path class="e" d="m244.93,28.15h-10.71l-2.51,6.61h-2.03l8.92-23.42h2.03l8.92,23.42h-2.1l-2.51-6.61Zm-10.02-1.83h9.33l-4.65-12.54-4.68,12.54Z"/></g><g><path class="e" d="m6.8,16.7c-.7,0-1.32.05-1.86.16-.53.11-.98.23-1.33.36-.35.13-.63.27-.84.4-.21.13-.33.22-.38.27v15.24H0v-16.33c.07-.05.26-.19.56-.42.3-.23.74-.47,1.31-.73.57-.25,1.26-.48,2.07-.69.81-.21,1.75-.31,2.82-.31,1.24,0,2.17.08,2.8.24.63.16,1.08.33,1.35.53.39.24.58.58.58,1.02,0,.27-.06.51-.18.73-.12.22-.24.38-.36.47-.29-.19-.78-.4-1.47-.62s-1.58-.33-2.67-.33Z"/><path class="e" d="m15.2,25.54c.24,2.06.94,3.57,2.09,4.53,1.15.96,2.75,1.44,4.78,1.44,1.19,0,2.26-.16,3.2-.49.95-.33,1.64-.62,2.07-.89l.98,1.78c-.19.12-.49.29-.89.49-.4.21-.89.4-1.46.58-.57.18-1.21.34-1.93.47-.72.13-1.49.2-2.31.2-1.29,0-2.49-.19-3.6-.58-1.12-.39-2.09-.96-2.91-1.73-.82-.76-1.48-1.71-1.96-2.84-.49-1.13-.73-2.44-.73-3.95s.24-2.79.71-4c.47-1.21,1.12-2.26,1.95-3.13.82-.87,1.81-1.55,2.95-2.04,1.14-.48,2.36-.73,3.67-.73,2.47,0,4.35.59,5.64,1.78,1.29,1.19,1.93,2.85,1.93,4.98,0,1.31-.35,2.32-1.04,3.04-.69.72-1.81,1.07-3.36,1.07h-9.79Zm8.8-1.93c.97,0,1.72-.16,2.24-.47.52-.31.78-.98.78-2,0-.58-.09-1.15-.27-1.69-.18-.55-.47-1.02-.87-1.44-.4-.41-.93-.75-1.6-1-.67-.25-1.47-.38-2.42-.38-1.07,0-2.01.21-2.84.62-.82.41-1.52.95-2.07,1.6-.56.65-.99,1.4-1.29,2.24-.3.84-.47,1.68-.49,2.53h8.84Z"/><path class="e" d="m32.05,18.48c-.12-.27-.27-.62-.44-1.06-.17-.44-.25-.79-.25-1.05,0-.34.1-.62.29-.85.19-.23.51-.35.95-.35.27,0,.48.02.64.07.16.05.26.09.31.11.53,1.46,1.12,2.92,1.75,4.38.63,1.47,1.27,2.88,1.91,4.24.64,1.36,1.25,2.64,1.84,3.84.58,1.2,1.1,2.27,1.56,3.22.46-.87.99-1.94,1.58-3.2.59-1.26,1.2-2.59,1.82-3.98.62-1.39,1.22-2.78,1.8-4.17.58-1.38,1.09-2.62,1.53-3.71.07-.17.19-.35.36-.53.17-.18.46-.27.87-.27.36,0,.66.08.89.24.23.16.37.26.42.31-.17.58-.43,1.31-.78,2.18-.35.87-.75,1.83-1.2,2.87-.45,1.04-.94,2.13-1.47,3.27-.53,1.14-1.07,2.26-1.6,3.35-.53,1.09-1.05,2.13-1.56,3.13-.51.99-.97,1.87-1.38,2.62h-2.66c-.56-1.02-1.19-2.21-1.89-3.58-.7-1.37-1.39-2.75-2.07-4.13-.68-1.38-1.3-2.69-1.87-3.93-.57-1.24-1.01-2.24-1.33-3.02Z"/><path class="e" d="m53.79,25.54c.24,2.06.94,3.57,2.09,4.53,1.15.96,2.75,1.44,4.78,1.44,1.19,0,2.26-.16,3.2-.49s1.64-.62,2.07-.89l.98,1.78c-.19.12-.49.29-.89.49-.4.21-.89.4-1.46.58-.57.18-1.21.34-1.93.47-.72.13-1.49.2-2.31.2-1.29,0-2.49-.19-3.6-.58-1.12-.39-2.09-.96-2.91-1.73-.82-.76-1.48-1.71-1.96-2.84-.49-1.13-.73-2.44-.73-3.95s.24-2.79.71-4c.47-1.21,1.12-2.26,1.95-3.13.82-.87,1.81-1.55,2.95-2.04,1.14-.48,2.36-.73,3.67-.73,2.47,0,4.35.59,5.64,1.78,1.29,1.19,1.93,2.85,1.93,4.98,0,1.31-.35,2.32-1.04,3.04-.69.72-1.81,1.07-3.36,1.07h-9.79Zm8.8-1.93c.97,0,1.72-.16,2.24-.47.52-.31.78-.98.78-2,0-.58-.09-1.15-.27-1.69-.18-.55-.47-1.02-.87-1.44-.4-.41-.93-.75-1.6-1-.67-.25-1.47-.38-2.42-.38-1.07,0-2.01.21-2.84.62-.82.41-1.52.95-2.07,1.6-.56.65-.99,1.4-1.29,2.24-.3.84-.47,1.68-.49,2.53h8.84Z"/><path class="e" d="m86,33.14v-10.04c0-2.04-.5-3.61-1.51-4.71-1.01-1.1-2.64-1.66-4.89-1.66-.73,0-1.39.04-1.98.13-.59.09-1.11.18-1.55.29-.44.11-.78.22-1.04.33-.25.11-.42.18-.49.2v15.46h-2.4v-17.06c.07-.02.31-.11.71-.27.4-.16.94-.32,1.62-.49.68-.17,1.48-.32,2.4-.45.92-.13,1.94-.2,3.06-.2,1.33,0,2.52.18,3.57.55,1.04.36,1.93.87,2.66,1.53.73.65,1.29,1.43,1.67,2.33.39.9.58,1.88.58,2.95v11.13h-2.4Z"/><path class="e" d="m95.3,25.54c.24,2.06.94,3.57,2.09,4.53,1.15.96,2.75,1.44,4.78,1.44,1.19,0,2.26-.16,3.2-.49s1.64-.62,2.07-.89l.98,1.78c-.19.12-.49.29-.89.49-.4.21-.89.4-1.46.58-.57.18-1.21.34-1.93.47-.72.13-1.49.2-2.31.2-1.29,0-2.49-.19-3.6-.58-1.12-.39-2.09-.96-2.91-1.73-.82-.76-1.48-1.71-1.96-2.84-.49-1.13-.73-2.44-.73-3.95s.24-2.79.71-4c.47-1.21,1.12-2.26,1.95-3.13.82-.87,1.81-1.55,2.95-2.04,1.14-.48,2.36-.73,3.67-.73,2.47,0,4.35.59,5.64,1.78,1.29,1.19,1.93,2.85,1.93,4.98,0,1.31-.35,2.32-1.04,3.04-.69.72-1.81,1.07-3.36,1.07h-9.79Zm8.8-1.93c.97,0,1.72-.16,2.24-.47.52-.31.78-.98.78-2,0-.58-.09-1.15-.27-1.69-.18-.55-.47-1.02-.87-1.44-.4-.41-.93-.75-1.6-1-.67-.25-1.47-.38-2.42-.38-1.07,0-2.01.21-2.84.62-.82.41-1.52.95-2.07,1.6-.56.65-.99,1.4-1.29,2.24-.3.84-.47,1.68-.49,2.53h8.84Z"/><path class="e" d="m120.46,16.7c-.7,0-1.32.05-1.86.16-.53.11-.98.23-1.33.36-.35.13-.63.27-.84.4-.21.13-.33.22-.38.27v15.24h-2.4v-16.33c.07-.05.26-.19.56-.42.3-.23.74-.47,1.31-.73.57-.25,1.26-.48,2.07-.69.81-.21,1.75-.31,2.82-.31,1.24,0,2.17.08,2.8.24.63.16,1.08.33,1.35.53.39.24.58.58.58,1.02,0,.27-.06.51-.18.73-.12.22-.24.38-.36.47-.29-.19-.78-.4-1.47-.62s-1.58-.33-2.67-.33Z"/><path class="e" d="m133.76,16.66c-1.38,0-2.46.18-3.22.53-.76.35-1.3.67-1.62.96-.17-.12-.32-.3-.45-.53-.13-.23-.2-.48-.2-.75s.07-.5.2-.69c.13-.19.3-.36.49-.51.24-.19.73-.41,1.46-.65.73-.24,1.79-.36,3.2-.36,2.91,0,5.11.59,6.58,1.78,1.48,1.19,2.22,3.1,2.22,5.75v10.88c-.7.12-1.65.25-2.84.38-1.19.13-2.76.2-4.73.2s-3.35-.18-4.46-.55c-1.1-.36-1.95-.82-2.53-1.38-.58-.56-.96-1.18-1.13-1.87-.17-.69-.25-1.36-.25-2.02,0-.82.13-1.6.38-2.33.25-.73.69-1.36,1.31-1.91.62-.55,1.46-.97,2.51-1.27,1.05-.3,2.37-.45,3.95-.45.53,0,1.08.01,1.64.04.56.02,1.08.05,1.56.07.48.02.92.05,1.31.07.39.02.69.04.91.04v-.07c0-1.75-.49-3.07-1.46-3.98-.97-.91-2.58-1.36-4.84-1.36Zm6.29,7.49c-.12-.02-.36-.05-.73-.09-.36-.04-.79-.07-1.27-.11-.49-.04-1.01-.07-1.58-.09-.57-.02-1.11-.04-1.62-.04-1.82,0-3.26.29-4.33.87-1.07.58-1.6,1.63-1.6,3.13,0,1.31.44,2.29,1.31,2.95.87.65,2.44.98,4.69.98,1.55,0,2.73-.06,3.53-.18.8-.12,1.33-.23,1.6-.33v-7.09Z"/><g><path class="e" d="m145.96,30.75h-.8v2.39h-.36v-2.39h-.8v-.33h1.97v.33Z"/><path class="e" d="m149.17,33.14h-.36v-2.26l-.87,2.26h-.26l-.88-2.27v2.27h-.35v-2.72h.54l.82,2.14.82-2.14h.54v2.72Z"/></g><path class="f" d="m92.37,5.04c-.41.75-1.32,2.81-1.49,6.5v6.68s.02.06.04.1c.56-1.06,1.23-2.03,2.03-2.87,1.16-1.23,2.57-2.2,4.17-2.89,1.59-.68,3.3-1.02,5.1-1.02.09,0,.18,0,.28,0-2.12-3.54-5.81-6.03-10.12-6.51Z"/><path class="d" d="m89.39,5.04c.41.75,1.32,2.81,1.49,6.5v6.68s-.02.06-.04.1c-.56-1.06-1.23-2.03-2.03-2.87-1.16-1.23-2.57-2.2-4.17-2.89-1.59-.68-3.3-1.02-5.1-1.02-.09,0-.18,0-.28,0,2.12-3.54,5.81-6.03,10.12-6.51Z"/></g><line class="g" x1="168.22" x2="168.22" y2="46.73"/></g></svg>